<svg width="33" height="32" viewBox="0 0 33 32" fill="none" xmlns="http://www.w3.org/2000/svg">
<path d="M25.0287 28.1564C23.3918 29.7044 21.6046 29.46 19.8842 28.7267C18.0636 27.9772 16.3933 27.9446 14.4725 28.7267C12.0672 29.737 10.7978 29.4437 9.36139 28.1564C1.2104 19.9604 2.41301 7.47906 11.6664 7.02282C13.9213 7.13688 15.4913 8.22859 16.8109 8.32636C18.7818 7.93529 20.6692 6.81099 22.7738 6.95764C25.2959 7.15317 27.2 8.13083 28.4527 9.8906C23.2415 12.9376 24.4775 19.6346 29.2545 21.5084C28.3024 23.9525 27.0664 26.3804 25.012 28.1727L25.0287 28.1564ZM16.6438 6.92505C16.3933 3.29144 19.4165 0.293296 22.8907 0C23.3751 4.20391 18.9822 7.33241 16.6438 6.92505Z" fill="#005B64"/>
</svg>
