<svg width="33" height="32" viewBox="0 0 33 32" fill="none" xmlns="http://www.w3.org/2000/svg">
<path d="M28.1145 13.7497C28.2645 14.553 28.3461 15.3929 28.3461 16.2694C28.3461 23.1252 23.7578 28 16.8276 28C15.2516 28.0005 13.691 27.6904 12.2349 27.0875C10.7787 26.4847 9.45569 25.6008 8.34129 24.4864C7.22689 23.372 6.34299 22.0489 5.7401 20.5928C5.13722 19.1367 4.82716 17.576 4.82764 16C4.82716 14.424 5.13722 12.8634 5.7401 11.4072C6.34299 9.95111 7.22689 8.62805 8.34129 7.51365C9.45569 6.39925 10.7787 5.51535 12.2349 4.91247C13.691 4.30958 15.2516 3.99952 16.8276 4C20.0678 4 22.7752 5.1922 24.8524 7.128L21.4697 10.5108V10.5022C20.2104 9.30273 18.6123 8.68712 16.8276 8.68712C12.8683 8.68712 9.65007 12.0321 9.65007 15.9927C9.65007 19.9521 12.8683 23.3044 16.8276 23.3044C20.4201 23.3044 22.8654 21.2503 23.3677 18.4295H16.8276V13.7497H28.1157H28.1145Z" fill="#005B64"/>
</svg>
