<svg width="24" height="24" viewBox="0 0 24 24" fill="none" xmlns="http://www.w3.org/2000/svg">
  <path
    d="M1.99991 5.33297C1.99991 4.44891 2.3511 3.60107 2.97622 2.97594C3.60134 2.35082 4.44919 1.99963 5.33324 1.99963H18.6666C19.5506 1.99963 20.3985 2.35082 21.0236 2.97594C21.6487 3.60107 21.9999 4.44891 21.9999 5.33297V18.6663C21.9999 19.5504 21.6487 20.3982 21.0236 21.0233C20.3985 21.6484 19.5506 21.9996 18.6666 21.9996H5.33324C4.44919 21.9996 3.60134 21.6484 2.97622 21.0233C2.3511 20.3982 1.99991 19.5504 1.99991 18.6663V5.33297ZM5.33324 4.22186C5.03856 4.22186 4.75594 4.33892 4.54757 4.54729C4.33919 4.75567 4.22213 5.03828 4.22213 5.33297V18.6663C4.22213 18.961 4.33919 19.2436 4.54757 19.452C4.75594 19.6603 5.03856 19.7774 5.33324 19.7774H18.6666C18.9613 19.7774 19.2439 19.6603 19.4523 19.452C19.6606 19.2436 19.7777 18.961 19.7777 18.6663V5.33297C19.7777 5.03828 19.6606 4.75567 19.4523 4.54729C19.2439 4.33892 18.9613 4.22186 18.6666 4.22186H5.33324ZM11.9999 6.44408C12.2946 6.44408 12.5772 6.56114 12.7856 6.76952C12.994 6.97789 13.111 7.2605 13.111 7.55519V16.4441C13.111 16.7388 12.994 17.0214 12.7856 17.2298C12.5772 17.4381 12.2946 17.5552 11.9999 17.5552C11.7052 17.5552 11.4226 17.4381 11.2142 17.2298C11.0059 17.0214 10.8888 16.7388 10.8888 16.4441V7.55519C10.8888 7.2605 11.0059 6.97789 11.2142 6.76952C11.4226 6.56114 11.7052 6.44408 11.9999 6.44408ZM7.55546 9.77741C7.85015 9.77741 8.13276 9.89447 8.34114 10.1028C8.54951 10.3112 8.66658 10.5938 8.66658 10.8885V16.4441C8.66658 16.7388 8.54951 17.0214 8.34114 17.2298C8.13276 17.4381 7.85015 17.5552 7.55546 17.5552C7.26078 17.5552 6.97816 17.4381 6.76979 17.2298C6.56142 17.0214 6.44435 16.7388 6.44435 16.4441V10.8885C6.44435 10.5938 6.56142 10.3112 6.76979 10.1028C6.97816 9.89447 7.26078 9.77741 7.55546 9.77741ZM16.4444 13.1107C16.739 13.1107 17.0217 13.2278 17.23 13.4362C17.4384 13.6446 17.5555 13.9272 17.5555 14.2219V16.4441C17.5555 16.7388 17.4384 17.0214 17.23 17.2298C17.0217 17.4381 16.739 17.5552 16.4444 17.5552C16.1497 17.5552 15.8671 17.4381 15.6587 17.2298C15.4503 17.0214 15.3332 16.7388 15.3332 16.4441V14.2219C15.3332 13.9272 15.4503 13.6446 15.6587 13.4362C15.8671 13.2278 16.1497 13.1107 16.4444 13.1107Z"
    fill="currentColor" />
</svg>